<?xml version="1.0" encoding="UTF-8" standalone="no" ?>
<!DOCTYPE svg PUBLIC "-//W3C//DTD SVG 1.1//EN" "http://www.w3.org/Graphics/SVG/1.1/DTD/svg11.dtd">
<svg xmlns="http://www.w3.org/2000/svg" xmlns:xlink="http://www.w3.org/1999/xlink" version="1.1" width="400" height="400" viewBox="0 0 400 400" xml:space="preserve">
<desc>Created with Fabric.js 3.6.2</desc>
<defs>
</defs>
<g transform="matrix(4.17 0 0 4.17 200 193.75)" id="Layer_1"  >
<path style="stroke: none; stroke-width: 1; stroke-dasharray: none; stroke-linecap: butt; stroke-dashoffset: 0; stroke-linejoin: miter; stroke-miterlimit: 4; fill: rgb(120,144,156); fill-rule: nonzero; opacity: 1;"  transform=" translate(-24, -22.5)" d="M 43 25 v -4.9 c 0 -1.3 -0.6 -2.6 -1.7 -3.3 L 24 7 L 6.7 16.8 c -1.1 0.8 -1.7 2 -1.7 3.3 V 25 l 19 13 L 43 25 z" stroke-linecap="round" />
</g>
<g transform="matrix(4.17 0 0 4.17 200 185.42)" id="Layer_1"  >
<rect style="stroke: none; stroke-width: 1; stroke-dasharray: none; stroke-linecap: butt; stroke-dashoffset: 0; stroke-linejoin: miter; stroke-miterlimit: 4; fill: rgb(165,214,167); fill-rule: nonzero; opacity: 1;"  x="-11" y="-16.5" rx="0" ry="0" width="22" height="33" />
</g>
<g transform="matrix(4.17 0 0 4.17 200 183.33)" id="Layer_1"  >
<path style="stroke: none; stroke-width: 1; stroke-dasharray: none; stroke-linecap: butt; stroke-dashoffset: 0; stroke-linejoin: miter; stroke-miterlimit: 4; fill: rgb(56,142,60); fill-rule: nonzero; opacity: 1;"  transform=" translate(-24, -20)" d="M 35 36 V 4 H 13 v 32 H 35 z M 33 34 H 15 V 6 h 18 V 34 z" stroke-linecap="round" />
</g>
<g transform="matrix(4.17 0 0 4.17 200 150)" id="Layer_1"  >
<circle style="stroke: none; stroke-width: 1; stroke-dasharray: none; stroke-linecap: butt; stroke-dashoffset: 0; stroke-linejoin: miter; stroke-miterlimit: 4; fill: rgb(56,142,60); fill-rule: nonzero; opacity: 1;"  cx="0" cy="0" r="2" />
</g>
<g transform="matrix(4.17 0 0 4.17 168.75 131.25)" id="Layer_1"  >
<path style="stroke: none; stroke-width: 1; stroke-dasharray: none; stroke-linecap: butt; stroke-dashoffset: 0; stroke-linejoin: miter; stroke-miterlimit: 4; fill: rgb(56,142,60); fill-rule: nonzero; opacity: 1;"  transform=" translate(-16.5, -7.5)" d="M 14 5 v 4.221 C 14.532 9.7 15.228 10 16 10 c 1.657 0 3 -1.343 3 -3 c 0 -0.772 -0.3 -1.468 -0.779 -2 H 14 z" stroke-linecap="round" />
</g>
<g transform="matrix(4.17 0 0 4.17 231.25 131.25)" id="Layer_1"  >
<path style="stroke: none; stroke-width: 1; stroke-dasharray: none; stroke-linecap: butt; stroke-dashoffset: 0; stroke-linejoin: miter; stroke-miterlimit: 4; fill: rgb(56,142,60); fill-rule: nonzero; opacity: 1;"  transform=" translate(-31.5, -7.5)" d="M 34 5 h -4.221 C 29.3 5.532 29 6.228 29 7 c 0 1.657 1.343 3 3 3 c 0.772 0 1.468 -0.3 2 -0.779 V 5 z" stroke-linecap="round" />
</g>
<g transform="matrix(4.17 0 0 4.17 200 200)" id="Layer_1"  >
<circle style="stroke: none; stroke-width: 1; stroke-dasharray: none; stroke-linecap: butt; stroke-dashoffset: 0; stroke-linejoin: miter; stroke-miterlimit: 4; fill: rgb(56,142,60); fill-rule: nonzero; opacity: 1;"  cx="0" cy="0" r="6" />
</g>
<g transform="matrix(4.17 0 0 4.17 200 229.82)" id="Layer_1"  >
<polygon style="stroke: none; stroke-width: 1; stroke-dasharray: none; stroke-linecap: butt; stroke-dashoffset: 0; stroke-linejoin: miter; stroke-miterlimit: 4; fill: rgb(102,187,106); fill-rule: nonzero; opacity: 1;"  points="9,-7.84 0,-2.16 -9,-7.84 -9,7.84 9,7.84 " />
</g>
<g transform="matrix(4.17 0 0 4.17 200 215.21)" id="Layer_1"  >
<path style="stroke: none; stroke-width: 1; stroke-dasharray: none; stroke-linecap: butt; stroke-dashoffset: 0; stroke-linejoin: miter; stroke-miterlimit: 4; fill: rgb(46,125,50); fill-rule: nonzero; opacity: 1;"  transform=" translate(-24, -27.65)" d="M 24 30 c 2.866 0 5.259 -2.011 5.854 -4.697 L 24 29 l -5.854 -3.697 C 18.741 27.989 21.134 30 24 30 z" stroke-linecap="round" />
</g>
<g transform="matrix(4.17 0 0 4.17 241.67 227.19)" id="Layer_1"  >
<polygon style="stroke: none; stroke-width: 1; stroke-dasharray: none; stroke-linecap: butt; stroke-dashoffset: 0; stroke-linejoin: miter; stroke-miterlimit: 4; fill: rgb(46,125,50); fill-rule: nonzero; opacity: 1;"  points="-1,-7.21 -1,8.47 1,8.47 1,-8.47 " />
</g>
<g transform="matrix(4.17 0 0 4.17 158.33 227.19)" id="Layer_1"  >
<polygon style="stroke: none; stroke-width: 1; stroke-dasharray: none; stroke-linecap: butt; stroke-dashoffset: 0; stroke-linejoin: miter; stroke-miterlimit: 4; fill: rgb(46,125,50); fill-rule: nonzero; opacity: 1;"  points="-1,-8.47 -1,8.47 1,8.47 1,-7.21 " />
</g>
<g transform="matrix(4.17 0 0 4.17 200 233.33)" id="Layer_1"  >
<path style="stroke: none; stroke-width: 1; stroke-dasharray: none; stroke-linecap: butt; stroke-dashoffset: 0; stroke-linejoin: miter; stroke-miterlimit: 4; fill: rgb(207,216,220); fill-rule: nonzero; opacity: 1;"  transform=" translate(-24, -32)" d="M 39 43 H 9 c -2.2 0 -4 -1.8 -4 -4 V 21 l 19 12 l 19 -12 v 18 C 43 41.2 41.2 43 39 43 z" stroke-linecap="round" />
</g>
</svg>