<?xml version="1.0" encoding="UTF-8"?>
<svg width="30px" height="40px" viewBox="0 0 30 40" version="1.1" xmlns="http://www.w3.org/2000/svg" xmlns:xlink="http://www.w3.org/1999/xlink">
    <!-- Generator: sketchtool 52.6 (67491) - http://www.bohemiancoding.com/sketch -->
    <title>F08967A3-F0FC-493B-84AA-6E0D5F570ACA</title>
    <desc>Created with sketchtool.</desc>
    <g id="Symbols" stroke="none" stroke-width="1" fill="none" fill-rule="evenodd">
        <g id="icons/currencys/card/default">
            <rect id="Rectangle" fill-opacity="0" fill="#D8D8D8" fill-rule="nonzero" x="0" y="-5" width="30" height="50"></rect>
            <g id="1495109531__" transform="translate(1.000000, 9.000000)">
                <g id="svg2">
                    <g id="layer1" transform="translate(0.000000, 0.245679)">
                        <path d="M3.76736111,0.77202138 C2.55208333,0.77202138 1.64165711,0.903408047 1.02083333,1.51831768 C0.400009556,2.13322731 0.267361111,3.03498434 0.267361111,4.23868805 L0.267361111,16.2876545 C0.267361111,17.4913582 0.400009556,18.3930767 1.02083333,19.0079864 C1.64165711,19.6229345 2.55208333,19.7543212 3.76736111,19.7543212 L24.1840278,19.7543212 C25.3993056,19.7543212 26.2975786,19.6229345 26.9184028,19.0079864 C27.5392269,18.3930767 27.6840278,17.4913582 27.6840278,16.2876545 L27.6840278,4.23868805 C27.6840278,3.03498434 27.5392269,2.13322731 26.9184028,1.51831768 C26.2975786,0.903408047 25.3993056,0.77202138 24.1840278,0.77202138 L3.76736111,0.77202138 Z" id="path15225" fill="#0B2039"></path>
                        <path d="M22.1666667,4.26202933 C20.8940157,4.26202933 19.8540615,5.2920723 19.8540615,6.55262163 C19.8540615,7.81311704 20.8940134,8.84321778 22.1666667,8.84321778 C23.4393199,8.84321778 24.4792714,7.81311704 24.4792714,6.55262163 C24.4792714,5.2920723 23.4393172,4.26202933 22.1666667,4.26202933 Z" id="path15233" fill="#F05542"></path>
                        <path d="M19.0831931,4.26202933 C17.8105426,4.26202933 16.7705883,5.2920723 16.7705883,6.55262163 C16.7705883,7.81311704 17.8105398,8.84321778 19.0831931,8.84321778 C20.3558464,8.84321778 21.3957983,7.81311704 21.3957983,6.55262163 C21.3957983,5.2920723 20.3558441,4.26202933 19.0831931,4.26202933 Z" id="path15230" fill="#FCD062"></path>
                        <polygon id="path15235" fill="#FFFFFF" points="3.18402778 14.6620563 3.18402778 15.8176119 3.76736111 15.8176119 6.68402778 15.8176119 7.26736111 15.8176119 7.26736111 14.6620563 6.68402778 14.6620563 3.76736111 14.6620563"></polygon>
                        <polygon id="path15237" fill="#FFFFFF" points="9.01736111 14.6620563 9.01736111 15.8176119 9.60069444 15.8176119 12.5173611 15.8176119 13.1006944 15.8176119 13.1006944 14.6620563 12.5173611 14.6620563 9.60069444 14.6620563"></polygon>
                        <polygon id="path15239" fill="#FFFFFF" points="14.8506944 14.6620563 14.8506944 15.8176119 15.4340278 15.8176119 18.3506944 15.8176119 18.9340278 15.8176119 18.9340278 14.6620563 18.3506944 14.6620563 15.4340278 14.6620563"></polygon>
                        <polygon id="path15241" fill="#FFFFFF" points="20.6840278 14.6620563 20.6840278 15.8176119 21.2673611 15.8176119 24.1840278 15.8176119 24.7673611 15.8176119 24.7673611 14.6620563 24.1840278 14.6620563 21.2673611 14.6620563"></polygon>
                    </g>
                </g>
            </g>
        </g>
    </g>
</svg>