<?xml version="1.0" encoding="UTF-8"?>
<svg width="30px" height="40px" viewBox="0 0 30 40" version="1.1" xmlns="http://www.w3.org/2000/svg" xmlns:xlink="http://www.w3.org/1999/xlink">
    <!-- Generator: sketchtool 52.6 (67491) - http://www.bohemiancoding.com/sketch -->
    <title>A2592575-B560-400A-8A82-32B3A3052FA4</title>
    <desc>Created with sketchtool.</desc>
    <g id="Symbols" stroke="none" stroke-width="1" fill="none" fill-rule="evenodd">
        <g id="icons/currencys/doge/default">
            <rect id="Rectangle" fill-opacity="0" fill="#D8D8D8" fill-rule="nonzero" x="0" y="-5" width="30" height="50"></rect>
            <g id="dogecoin" transform="translate(0.000000, 5.000000)">
                <path d="M13.642,0.464 C16.742,0.166 19.935,0.887 22.595,2.51 C25.102,4.02 27.132,6.303 28.343,8.967 C29.623,11.751 29.963,14.942 29.362,17.942 C28.763,20.951 27.171,23.748 24.903,25.814 C22.634,27.909 19.68,29.244 16.608,29.57 C14.626,29.755 12.601,29.606 10.698,29.002 C7.444,28.004 4.573,25.82 2.735,22.955 C1.189,20.576 0.367,17.734 0.406,14.896 C0.414,11.651 1.566,8.427 3.599,5.9 C6.032,2.831 9.739,0.816 13.642,0.464" id="Fill-2" fill="#988430"></path>
                <path d="M14.739,0.853 C17.339,0.808 19.955,1.471 22.197,2.796 C24.615,4.216 26.604,6.367 27.807,8.902 C29.106,11.546 29.489,14.608 28.984,17.503 C28.322,21.382 25.937,24.921 22.602,27.006 C20.293,28.486 17.536,29.253 14.796,29.193 C12.12,29.175 9.465,28.341 7.235,26.867 C4.952,25.361 3.103,23.192 2.026,20.674 C0.784,17.84 0.52,14.593 1.276,11.593 C2.014,8.555 3.823,5.807 6.278,3.879 C8.667,1.98 11.691,0.915 14.739,0.853" id="Fill-3" fill="#7A6A2A"></path>
                <path d="M9.354,2.361 C11.796,1.254 14.565,0.903 17.211,1.321 C19.974,1.751 22.59,3.053 24.608,4.988 C27.077,7.328 28.634,10.603 28.868,13.998 C29.176,17.869 27.757,21.84 25.047,24.623 C25.009,23.816 24.997,23.008 24.982,22.2 C24.976,21.601 24.843,21.015 24.792,20.421 C24.803,20.213 24.827,20.006 24.834,19.799 C24.863,19.238 24.566,18.715 24.642,18.15 C24.716,17.356 24.3,16.636 24.094,15.892 C23.889,15.369 23.902,14.794 23.703,14.27 C23.56,12.246 22.776,10.203 21.24,8.828 C21.29,8.758 21.388,8.616 21.438,8.545 C21.499,8.677 21.568,8.804 21.637,8.931 C21.994,8.527 22.049,7.971 22.155,7.465 C22.354,6.563 22.216,5.631 22.062,4.734 C21.943,4.274 21.848,3.741 21.463,3.423 C21.052,3.181 20.34,3.177 20.101,3.657 C20.093,3.685 20.077,3.741 20.069,3.768 C19.89,4.079 19.642,4.348 19.331,4.529 C18.779,4.869 18.478,5.514 17.888,5.812 C17.52,5.932 17.146,5.728 16.771,5.77 C16.065,5.843 15.348,5.88 14.662,6.077 C14.013,5.974 13.361,5.871 12.716,5.741 C12.718,5.694 12.723,5.601 12.726,5.554 C12.431,5.268 12.162,4.942 12.055,4.537 C11.858,3.783 11.393,3.057 10.692,2.687 C10.593,2.648 10.494,2.61 10.395,2.574 C10.333,2.642 10.273,2.711 10.214,2.78 C10.191,2.833 10.145,2.939 10.122,2.991 C9.966,3.34 10.001,3.729 9.99,4.101 C9.98,5.062 9.88,6.046 9.474,6.929 C8.82,6.927 8.167,6.922 7.514,6.93 C7.384,7.224 7.43,7.55 7.423,7.861 C6.372,8.834 5.952,10.268 5.756,11.643 C5.755,11.749 5.759,11.856 5.768,11.962 C5.77,12.004 5.773,12.088 5.775,12.129 C5.313,12.738 5.232,13.534 5.113,14.265 C5.282,14.255 5.451,14.245 5.621,14.238 C5.465,14.255 5.309,14.27 5.154,14.285 C5.124,14.452 5.1,14.619 5.081,14.787 C5.233,14.731 5.384,14.673 5.536,14.617 L5.618,14.621 C5.437,14.695 5.26,14.781 5.084,14.868 C5.088,14.974 5.096,15.187 5.099,15.293 C5.305,15.187 5.513,15.087 5.719,14.981 L5.644,15.065 C5.469,15.179 5.245,15.24 5.107,15.402 C5.111,15.786 5.165,16.168 5.217,16.548 C5.352,17.412 5.655,18.253 6.098,19.007 C6.085,19.558 5.966,20.113 5.641,20.568 C5.732,20.74 5.884,20.899 5.893,21.101 C5.836,21.444 5.56,21.734 5.618,22.098 C5.692,22.981 5.368,23.824 4.985,24.601 C2.998,22.536 1.685,19.834 1.288,16.995 C0.911,14.345 1.306,11.584 2.449,9.16 C3.837,6.164 6.337,3.703 9.354,2.361" id="Fill-4" fill="#BA9F33"></path>
                <path d="M10.214,2.78 C10.273,2.711 10.333,2.642 10.395,2.574 C10.494,2.61 10.593,2.648 10.692,2.687 C10.859,3.212 11.118,3.737 11.065,4.303 C11.046,4.681 10.964,5.087 11.154,5.439 C11.236,5.639 11.435,5.743 11.604,5.858 C11.502,5.937 11.401,6.016 11.294,6.087 C10.852,6.263 10.5,6.591 10.169,6.922 C10.041,6.922 9.913,6.923 9.785,6.923 C10.485,6.082 10.794,4.974 10.791,3.892 C10.805,3.443 10.461,3.115 10.214,2.78" id="Fill-5" fill="#C79C3B"></path>
                <path d="M10.692,2.687 C11.393,3.057 11.858,3.783 12.055,4.537 C12.162,4.942 12.431,5.268 12.726,5.554 C12.723,5.601 12.718,5.694 12.716,5.741 C12.35,5.621 11.9,5.545 11.604,5.858 C11.435,5.743 11.236,5.639 11.154,5.439 C10.964,5.087 11.046,4.681 11.065,4.303 C11.118,3.737 10.859,3.212 10.692,2.687" id="Fill-6" fill="#B58634"></path>
                <path d="M10.214,2.78 C10.461,3.115 10.805,3.443 10.791,3.892 C10.794,4.974 10.485,6.082 9.785,6.923 C9.737,6.924 9.642,6.926 9.594,6.926 C9.897,6.462 10.198,5.959 10.23,5.39 C10.287,4.587 10.04,3.796 10.122,2.991 C10.145,2.939 10.191,2.833 10.214,2.78" id="Fill-7" fill="#DFC068"></path>
                <path d="M9.99,4.101 C10.001,3.729 9.966,3.34 10.122,2.991 C10.04,3.796 10.287,4.587 10.23,5.39 C10.198,5.959 9.897,6.462 9.594,6.926 L9.474,6.929 C9.88,6.046 9.98,5.062 9.99,4.101" id="Fill-8" fill="#A78F33"></path>
                <path d="M20.101,3.657 C20.34,3.177 21.052,3.181 21.463,3.423 C21.848,3.741 21.943,4.274 22.062,4.734 C22.216,5.631 22.354,6.563 22.155,7.465 C22.049,7.971 21.994,8.527 21.637,8.931 C21.568,8.804 21.499,8.677 21.438,8.545 C21.37,8.347 21.313,8.145 21.249,7.945 C21.495,7.396 21.62,6.796 21.685,6.2 C21.744,5.668 21.39,5.23 21.037,4.88 C20.85,4.386 20.471,4.018 20.101,3.657" id="Fill-9" fill="#A17C34"></path>
                <path d="M20.069,3.768 C20.077,3.741 20.093,3.685 20.101,3.657 C20.471,4.018 20.85,4.386 21.037,4.88 C21.027,5.025 20.994,5.183 20.842,5.239 C20.409,5.458 19.924,5.617 19.607,6.006 C19.39,6.281 18.967,6.438 18.933,6.821 C18.979,6.855 19.071,6.922 19.117,6.956 C19.074,7.012 18.989,7.124 18.946,7.18 C19.001,7.237 19.057,7.293 19.113,7.349 C19.344,7.108 19.699,7.087 19.998,6.981 C19.951,7.097 19.904,7.214 19.857,7.331 C19.984,7.303 20.113,7.275 20.241,7.249 C20.083,7.43 19.906,7.594 19.72,7.747 C19.699,7.735 19.657,7.713 19.636,7.702 C19.408,7.589 19.186,7.437 18.924,7.427 C18.911,7.388 18.886,7.312 18.873,7.273 C18.729,7.265 18.586,7.238 18.45,7.192 C18.488,7.097 18.564,6.908 18.602,6.814 C18.523,6.852 18.364,6.929 18.285,6.967 C18.5,6.614 18.709,6.257 18.919,5.901 C18.934,5.875 18.964,5.823 18.979,5.797 C19.268,5.261 19.693,4.814 19.984,4.281 C20.086,4.127 20.082,3.944 20.069,3.768" id="Fill-10" fill="#B89844"></path>
                <path d="M20.069,3.768 C20.082,3.944 20.086,4.127 19.984,4.281 C19.693,4.814 19.268,5.261 18.979,5.797 C18.974,5.347 19.033,4.887 19.331,4.529 C19.642,4.348 19.89,4.079 20.069,3.768" id="Fill-11" fill="#CBA94C"></path>
                <path d="M17.888,5.812 C18.478,5.514 18.779,4.869 19.331,4.529 C19.033,4.887 18.974,5.347 18.979,5.797 C18.964,5.823 18.934,5.875 18.919,5.901 C18.931,5.728 18.914,5.556 18.889,5.385 C18.61,5.961 18.303,6.527 17.881,7.013 C17.637,6.947 17.384,6.923 17.131,6.923 C17.271,6.655 17.451,6.411 17.641,6.178 C16.661,5.948 15.653,6.171 14.662,6.077 C15.348,5.88 16.065,5.843 16.771,5.77 C17.146,5.728 17.52,5.932 17.888,5.812" id="Fill-12" fill="#AC8132"></path>
                <path d="M21.037,4.88 C21.39,5.23 21.744,5.668 21.685,6.2 C21.62,6.796 21.495,7.396 21.249,7.945 C21.068,8.093 20.88,8.233 20.694,8.376 C20.606,8.311 20.516,8.247 20.427,8.183 L20.383,8.153 C20.669,7.538 21.131,6.96 21.161,6.261 C20.616,6.281 20.071,6.37 19.552,6.536 C19.338,6.589 19.229,6.786 19.117,6.956 C19.071,6.922 18.979,6.855 18.933,6.821 C18.967,6.438 19.39,6.281 19.607,6.006 C19.924,5.617 20.409,5.458 20.842,5.239 C20.994,5.183 21.027,5.025 21.037,4.88" id="Fill-13" fill="#927238"></path>
                <path d="M18.889,5.385 C18.914,5.556 18.931,5.728 18.919,5.901 C18.709,6.257 18.5,6.614 18.285,6.967 C18.364,6.929 18.523,6.852 18.602,6.814 C18.564,6.908 18.488,7.097 18.45,7.192 C18.261,7.128 18.073,7.064 17.881,7.013 C18.303,6.527 18.61,5.961 18.889,5.385" id="Fill-14" fill="#8C6228"></path>
                <path d="M11.604,5.858 C11.9,5.545 12.35,5.621 12.716,5.741 C13.361,5.871 14.013,5.974 14.662,6.077 C15.653,6.171 16.661,5.948 17.641,6.178 C17.451,6.411 17.271,6.655 17.131,6.923 C15.528,6.921 13.924,6.93 12.321,6.924 C12.254,6.696 12.245,6.412 12.035,6.26 C11.821,6.106 11.544,6.115 11.294,6.087 C11.401,6.016 11.502,5.937 11.604,5.858" id="Fill-15" fill="#D2A83E"></path>
                <path d="M10.169,6.922 C10.5,6.591 10.852,6.263 11.294,6.087 C11.544,6.115 11.821,6.106 12.035,6.26 C12.245,6.412 12.254,6.696 12.321,6.924 C11.604,6.922 10.886,6.923 10.169,6.922" id="Fill-16" fill="#DCBA5A"></path>
                <path d="M19.552,6.536 C20.071,6.37 20.616,6.281 21.161,6.261 C21.131,6.96 20.669,7.538 20.383,8.153 C20.171,8.003 19.949,7.869 19.72,7.747 C19.906,7.594 20.083,7.43 20.241,7.249 C20.113,7.275 19.984,7.303 19.857,7.331 C19.904,7.214 19.951,7.097 19.998,6.981 C19.699,7.087 19.344,7.108 19.113,7.349 C19.057,7.293 19.001,7.237 18.946,7.18 C18.989,7.124 19.074,7.012 19.117,6.956 C19.229,6.786 19.338,6.589 19.552,6.536" id="Fill-17" fill="#543E26"></path>
                <path d="M7.514,6.93 C8.167,6.922 8.82,6.927 9.474,6.929 L9.594,6.926 C9.642,6.926 9.737,6.924 9.785,6.923 C9.913,6.923 10.041,6.922 10.169,6.922 C10.886,6.923 11.604,6.922 12.321,6.924 C13.924,6.93 15.528,6.921 17.131,6.923 C17.384,6.923 17.637,6.947 17.881,7.013 C18.073,7.064 18.261,7.128 18.45,7.192 C18.586,7.238 18.729,7.265 18.873,7.273 C18.886,7.312 18.911,7.388 18.924,7.427 C19.186,7.437 19.408,7.589 19.636,7.702 C19.488,8.084 19.187,8.366 18.908,8.653 C19.153,8.789 19.396,8.931 19.619,9.102 C19.904,8.81 20.167,8.497 20.427,8.183 C20.516,8.247 20.606,8.311 20.694,8.376 C20.883,8.518 21.066,8.668 21.24,8.828 C22.776,10.203 23.56,12.246 23.703,14.27 C23.722,14.535 23.726,14.801 23.734,15.066 C23.728,16.119 23.633,17.179 23.357,18.198 C23.166,18.905 22.895,19.593 22.524,20.225 C22.264,20.626 21.985,21.018 21.649,21.36 C21.431,21.588 21.202,21.807 20.948,21.996 C20.834,21.937 20.721,21.879 20.607,21.821 C20.413,21.929 20.233,22.1 19.999,22.105 C19.685,22.126 19.394,22.263 19.085,22.317 C19.385,21.869 19.998,21.533 19.899,20.913 C19.73,20.921 19.562,20.929 19.394,20.937 C19.451,20.72 19.506,20.501 19.558,20.282 C19.502,20.245 19.392,20.171 19.337,20.134 C19.526,19.923 19.719,19.713 19.897,19.491 C19.517,19.578 19.174,19.766 18.814,19.908 C19.504,18.903 20.111,17.839 20.619,16.731 C20.909,16.044 21.296,15.363 21.305,14.597 C21.331,14.108 21.018,13.685 21.003,13.2 C20.96,12.642 20.961,11.996 20.498,11.599 C19.699,11.763 18.89,11.61 18.093,11.517 C17.879,11.486 17.664,11.523 17.453,11.558 C17.416,11.513 17.377,11.471 17.338,11.429 C17.09,11.18 16.828,10.92 16.489,10.803 C16.177,10.752 15.86,10.793 15.546,10.796 L15.503,10.785 C15.156,10.634 14.795,10.437 14.403,10.507 C14.077,10.541 13.883,10.837 13.623,11 C13.355,11.17 13.089,11.348 12.886,11.596 C13.154,12.054 13.635,12.305 14.133,12.434 C14.116,12.733 14.093,13.031 14.067,13.329 C13.761,13.431 13.475,13.583 13.212,13.769 C13.072,13.466 13.006,13.135 12.871,12.831 C12.727,12.639 12.527,12.498 12.346,12.343 C12.304,12.472 12.263,12.602 12.221,12.732 C12.129,12.78 12.037,12.829 11.945,12.878 C11.932,12.652 11.926,12.425 11.885,12.202 C11.795,11.797 11.506,11.477 11.353,11.098 C11.378,10.71 11.496,10.332 11.506,9.942 C11.312,10.02 11.115,10.091 10.925,10.177 C10.665,10.28 10.537,10.554 10.314,10.707 C10.097,10.803 9.861,10.839 9.633,10.899 L9.662,10.816 C9.865,10.638 9.923,10.376 9.974,10.124 C9.845,10.186 9.717,10.248 9.589,10.311 C9.428,10.085 9.673,9.933 9.813,9.785 C9.606,9.593 9.327,9.444 9.04,9.548 C8.559,9.716 8.347,10.25 8.298,10.72 C8.101,10.725 7.904,10.734 7.707,10.73 C7.784,10.588 7.86,10.446 7.938,10.304 C7.841,10.089 7.623,10.008 7.416,9.937 C7.427,9.401 7.418,8.866 7.417,8.331 C7.419,8.174 7.423,8.018 7.423,7.861 C7.43,7.55 7.384,7.224 7.514,6.93" id="Fill-18" fill="#F3EBDB"></path>
                <path d="M19.636,7.702 C19.657,7.713 19.699,7.735 19.72,7.747 C19.949,7.869 20.171,8.003 20.383,8.153 L20.427,8.183 C20.167,8.497 19.904,8.81 19.619,9.102 C19.396,8.931 19.153,8.789 18.908,8.653 C19.187,8.366 19.488,8.084 19.636,7.702" id="Fill-19" fill="#DCDAD7"></path>
                <path d="M5.756,11.643 C5.952,10.268 6.372,8.834 7.423,7.861 C7.423,8.018 7.419,8.174 7.417,8.331 C6.721,9.06 6.319,10.032 6.129,11.011 C6.055,11.344 5.906,11.653 5.768,11.962 C5.759,11.856 5.755,11.749 5.756,11.643" id="Fill-20" fill="#A78E32"></path>
                <path d="M20.694,8.376 C20.88,8.233 21.068,8.093 21.249,7.945 C21.313,8.145 21.37,8.347 21.438,8.545 C21.388,8.616 21.29,8.758 21.24,8.828 C21.066,8.668 20.883,8.518 20.694,8.376" id="Fill-21" fill="#B59544"></path>
                <path d="M6.129,11.011 C6.319,10.032 6.721,9.06 7.417,8.331 C7.418,8.866 7.427,9.401 7.416,9.937 C7.086,10.218 6.939,10.68 6.514,10.849 C6.457,11.141 6.341,11.417 6.169,11.66 C6.044,11.822 5.908,11.974 5.775,12.129 C5.773,12.088 5.77,12.004 5.768,11.962 C5.906,11.653 6.055,11.344 6.129,11.011" id="Fill-22" fill="#EBCC73"></path>
                <path d="M9.04,9.548 C9.327,9.444 9.606,9.593 9.813,9.785 C9.673,9.933 9.428,10.085 9.589,10.311 C9.717,10.248 9.845,10.186 9.974,10.124 C9.923,10.376 9.865,10.638 9.662,10.816 C9.4,10.778 9.134,10.774 8.871,10.802 C8.887,10.645 8.898,10.486 8.937,10.333 C9.057,10.203 9.23,10.147 9.382,10.068 C9.29,9.975 9.216,9.855 9.096,9.797 C8.809,9.874 8.522,10.092 8.479,10.402 C8.486,10.544 8.509,10.685 8.53,10.827 C8.483,10.825 8.388,10.821 8.341,10.82 L8.282,10.818 L8.298,10.72 C8.347,10.25 8.559,9.716 9.04,9.548" id="Fill-23" fill="#D7D7D5"></path>
                <path d="M20.945,9.742 C21.188,9.658 21.433,9.579 21.68,9.509 C21.865,9.88 21.803,10.283 21.615,10.638 C21.705,10.638 21.796,10.639 21.887,10.64 C21.903,10.952 21.899,11.389 21.532,11.491 C21.329,11.044 20.844,10.784 20.72,10.293 C20.735,10.091 20.858,9.919 20.945,9.742" id="Fill-24" fill="#E6DED7"></path>
                <path d="M8.479,10.402 C8.522,10.092 8.809,9.874 9.096,9.797 C9.216,9.855 9.29,9.975 9.382,10.068 C9.23,10.147 9.057,10.203 8.937,10.333 C8.898,10.486 8.887,10.645 8.871,10.802 C8.786,10.808 8.615,10.82 8.53,10.827 C8.509,10.685 8.486,10.544 8.479,10.402" id="Fill-25" fill="#F5F2E6"></path>
                <path d="M10.925,10.177 C11.115,10.091 11.312,10.02 11.506,9.942 C11.496,10.332 11.378,10.71 11.353,11.098 C11.506,11.477 11.795,11.797 11.885,12.202 C11.926,12.425 11.932,12.652 11.945,12.878 C12.037,12.829 12.129,12.78 12.221,12.732 C12.263,12.602 12.304,12.472 12.346,12.343 C12.527,12.498 12.727,12.639 12.871,12.831 C13.006,13.135 13.072,13.466 13.212,13.769 C13.475,13.583 13.761,13.431 14.067,13.329 C14.093,13.031 14.116,12.733 14.133,12.434 C14.134,12.402 14.135,12.338 14.136,12.306 C13.959,12.158 13.681,12.063 13.657,11.799 C13.635,11.463 13.847,11.171 14.084,10.956 C14.15,10.97 14.217,10.986 14.285,10.996 C14.414,10.986 14.477,10.91 14.473,10.766 C14.646,10.759 14.819,10.767 14.992,10.777 C14.817,11.019 14.594,11.244 14.287,11.295 C14.286,11.457 14.29,11.619 14.299,11.781 C14.289,11.944 14.272,12.107 14.262,12.27 L14.259,12.382 C14.261,12.767 14.261,13.153 14.264,13.538 C14.266,15.463 14.257,17.387 14.268,19.312 C14.277,19.349 14.296,19.424 14.306,19.461 C15.173,19.403 16.16,19.675 16.912,19.11 C17.966,18.353 18.399,17.029 18.508,15.786 C18.631,14.319 18.369,12.749 17.453,11.558 C17.664,11.523 17.879,11.486 18.093,11.517 C18.89,11.61 19.699,11.763 20.498,11.599 C20.961,11.996 20.96,12.642 21.003,13.2 C21.018,13.685 21.331,14.108 21.305,14.597 C21.296,15.363 20.909,16.044 20.619,16.731 C20.111,17.839 19.504,18.903 18.814,19.908 C19.174,19.766 19.517,19.578 19.897,19.491 C19.719,19.713 19.526,19.923 19.337,20.134 C19.392,20.171 19.502,20.245 19.558,20.282 C19.506,20.501 19.451,20.72 19.394,20.937 C19.562,20.929 19.73,20.921 19.899,20.913 C19.998,21.533 19.385,21.869 19.085,22.317 C19.394,22.263 19.685,22.126 19.999,22.105 C20.233,22.1 20.413,21.929 20.607,21.821 C20.721,21.879 20.834,21.937 20.948,21.996 C19.74,22.914 18.217,23.409 16.7,23.375 C15.38,23.371 14.06,23.381 12.74,23.37 C12.168,23.372 11.595,23.371 11.023,23.372 C10.603,23.372 10.182,23.372 9.762,23.374 C9.639,23.373 9.516,23.372 9.393,23.372 C8.832,23.37 8.27,23.392 7.71,23.368 C7.513,23.384 7.434,23.165 7.433,23.005 C7.408,22.56 7.431,22.115 7.424,21.67 C7.429,21.162 7.432,20.653 7.419,20.145 C7.417,19.923 7.452,19.705 7.504,19.49 C8.21,19.418 8.919,19.51 9.627,19.461 C9.627,19.219 9.628,18.977 9.628,18.736 C9.628,18.55 9.628,18.364 9.63,18.179 C9.673,18.341 9.726,18.5 9.778,18.66 C10.112,18.598 10.483,18.513 10.735,18.809 C11.324,18.287 12.192,18.312 12.896,18.023 C13.049,17.625 13.406,17.304 13.359,16.845 C13.331,16.839 13.273,16.826 13.245,16.819 C12.508,16.587 11.819,17.064 11.099,17.119 C10.62,17.074 10.158,16.842 9.85,16.471 C9.876,16.365 9.905,16.259 9.933,16.154 C9.862,16.095 9.791,16.036 9.72,15.977 C9.712,15.763 9.709,15.549 9.721,15.336 C9.786,15.084 9.954,14.887 10.185,14.771 C10.259,14.393 10.32,14.013 10.386,13.634 C10.189,13.385 9.923,13.211 9.627,13.102 L9.627,13.073 C9.625,12.819 9.625,12.566 9.627,12.312 C9.632,11.874 9.627,11.436 9.625,10.998 C9.627,10.973 9.631,10.923 9.633,10.899 C9.861,10.839 10.097,10.803 10.314,10.707 C10.537,10.554 10.665,10.28 10.925,10.177" id="Fill-26" fill="#F8F3E4"></path>
                <path d="M6.514,10.849 C6.939,10.68 7.086,10.218 7.416,9.937 C7.42,10.189 7.425,10.441 7.432,10.693 C7.501,10.702 7.638,10.721 7.707,10.73 C7.904,10.734 8.101,10.725 8.298,10.72 L8.282,10.818 C8.013,10.813 7.744,10.812 7.475,10.807 C7.442,10.958 7.419,11.11 7.411,11.264 C6.886,11.468 6.571,11.95 6.142,12.285 C6.146,12.076 6.151,11.868 6.169,11.66 C6.341,11.417 6.457,11.141 6.514,10.849" id="Fill-27" fill="#F4EFC8"></path>
                <path d="M7.416,9.937 C7.623,10.008 7.841,10.089 7.938,10.304 C7.86,10.446 7.784,10.588 7.707,10.73 C7.638,10.721 7.501,10.702 7.432,10.693 C7.425,10.441 7.42,10.189 7.416,9.937" id="Fill-28" fill="#FCFCF4"></path>
                <path d="M13.623,11 C13.883,10.837 14.077,10.541 14.403,10.507 C14.795,10.437 15.156,10.634 15.503,10.785 C15.332,10.781 15.162,10.784 14.992,10.777 C14.819,10.767 14.646,10.759 14.473,10.766 C14.332,10.774 14.269,10.851 14.285,10.996 C14.217,10.986 14.15,10.97 14.084,10.956 C13.847,11.171 13.635,11.463 13.657,11.799 C13.681,12.063 13.959,12.158 14.136,12.306 C14.135,12.338 14.134,12.402 14.133,12.434 C13.635,12.305 13.154,12.054 12.886,11.596 C13.089,11.348 13.355,11.17 13.623,11" id="Fill-29" fill="#D7D7D5"></path>
                <path d="M7.475,10.807 C7.744,10.812 8.013,10.813 8.282,10.818 L8.341,10.82 C8.448,11.033 8.596,11.223 8.807,11.342 C8.872,11.393 8.936,11.446 8.999,11.5 C8.789,11.822 8.481,12.077 8.33,12.437 C8.18,12.498 8.032,12.563 7.881,12.618 C7.849,12.597 7.785,12.556 7.753,12.535 C7.784,12.482 7.844,12.377 7.874,12.324 C7.76,12.297 7.645,12.27 7.531,12.243 C7.471,11.919 7.428,11.593 7.411,11.264 C7.419,11.11 7.442,10.958 7.475,10.807" id="Fill-30" fill="#E5C66B"></path>
                <path d="M8.341,10.82 C8.388,10.821 8.483,10.825 8.53,10.827 C8.506,11.231 8.968,11.184 9.238,11.142 C9.117,11.026 8.996,10.912 8.871,10.802 C9.134,10.774 9.4,10.778 9.662,10.816 L9.633,10.899 C9.631,10.923 9.627,10.973 9.625,10.998 C9.326,11.059 9.126,11.373 8.807,11.342 C8.596,11.223 8.448,11.033 8.341,10.82" id="Fill-31" fill="#242110"></path>
                <path d="M8.53,10.827 C8.615,10.82 8.786,10.808 8.871,10.802 C8.996,10.912 9.117,11.026 9.238,11.142 C8.968,11.184 8.506,11.231 8.53,10.827" id="Fill-32" fill="#938357"></path>
                <path d="M14.285,10.996 C14.269,10.851 14.332,10.774 14.473,10.766 C14.477,10.91 14.414,10.986 14.285,10.996" id="Fill-33" fill="#CDBD83"></path>
                <path d="M14.992,10.777 C15.162,10.784 15.332,10.781 15.503,10.785 L15.546,10.796 C15.769,10.939 15.989,11.093 16.172,11.288 C15.961,11.74 15.586,12.121 15.122,12.312 C14.843,12.396 14.546,12.368 14.259,12.382 L14.262,12.27 C14.478,12.268 14.694,12.26 14.911,12.248 C14.673,12.14 14.444,12.005 14.299,11.781 C14.29,11.619 14.286,11.457 14.287,11.295 C14.594,11.244 14.817,11.019 14.992,10.777" id="Fill-34" fill="#252211"></path>
                <path d="M15.546,10.796 C15.86,10.793 16.177,10.752 16.489,10.803 C16.828,10.92 17.09,11.18 17.338,11.429 C17.018,11.76 16.809,12.172 16.535,12.537 C16.264,12.91 15.776,12.974 15.394,13.184 C15.043,13.374 14.664,13.507 14.264,13.538 C14.261,13.153 14.261,12.767 14.259,12.382 C14.546,12.368 14.843,12.396 15.122,12.312 C15.586,12.121 15.961,11.74 16.172,11.288 C15.989,11.093 15.769,10.939 15.546,10.796" id="Fill-35" fill="#D2B257"></path>
                <path d="M8.807,11.342 C9.126,11.373 9.326,11.059 9.625,10.998 C9.627,11.436 9.632,11.874 9.627,12.312 C9.387,12.371 9.136,12.499 8.889,12.406 C8.703,12.332 8.509,12.353 8.33,12.437 C8.481,12.077 8.789,11.822 8.999,11.5 C8.936,11.446 8.872,11.393 8.807,11.342" id="Fill-36" fill="#E6BD62"></path>
                <path d="M15.031,11.031 C15.355,11.058 14.863,11.332 15.031,11.031" id="Fill-37" fill="#696148"></path>
                <path d="M6.142,12.285 C6.571,11.95 6.886,11.468 7.411,11.264 C7.428,11.593 7.471,11.919 7.531,12.243 C7.645,12.27 7.76,12.297 7.874,12.324 C7.844,12.377 7.784,12.482 7.753,12.535 C7.414,12.792 6.974,12.983 6.807,13.404 C6.617,13.92 6.636,14.48 6.565,15.019 C6.442,14.897 6.258,14.796 6.269,14.597 C6.243,14.192 6.35,13.794 6.374,13.392 C6.187,13.664 6.074,13.976 5.962,14.284 C5.911,14.478 5.684,14.52 5.536,14.617 C5.384,14.673 5.233,14.731 5.081,14.787 C5.1,14.619 5.124,14.452 5.154,14.285 C5.309,14.27 5.465,14.255 5.621,14.238 C5.451,14.245 5.282,14.255 5.113,14.265 C5.232,13.534 5.313,12.738 5.775,12.129 C5.908,11.974 6.044,11.822 6.169,11.66 C6.151,11.868 6.146,12.076 6.142,12.285" id="Fill-38" fill="#F4ECB4"></path>
                <path d="M15.129,11.407 C15.432,11.264 15.16,11.733 15.129,11.407" id="Fill-39" fill="#71694F"></path>
                <path d="M17.338,11.429 C17.377,11.471 17.416,11.513 17.453,11.558 C18.369,12.749 18.631,14.319 18.508,15.786 C18.351,15.871 18.191,15.952 18.043,16.053 C17.789,16.227 17.65,16.523 17.396,16.697 C16.951,16.919 16.391,16.866 15.995,17.193 C15.769,17.449 15.615,17.764 15.351,17.987 C15.492,18.13 15.644,18.263 15.774,18.417 C15.842,18.536 15.817,18.689 15.885,18.809 C16.012,18.911 16.157,18.989 16.296,19.075 C15.936,19.129 15.571,19.116 15.21,19.068 C14.873,19.004 14.569,19.195 14.268,19.312 C14.257,17.387 14.266,15.463 14.264,13.538 C14.664,13.507 15.043,13.374 15.394,13.184 C15.776,12.974 16.264,12.91 16.535,12.537 C16.809,12.172 17.018,11.76 17.338,11.429" id="Fill-40" fill="#DFCD88"></path>
                <path d="M14.299,11.781 C14.444,12.005 14.673,12.14 14.911,12.248 C14.694,12.26 14.478,12.268 14.262,12.27 C14.272,12.107 14.289,11.944 14.299,11.781" id="Fill-41" fill="#DFCD88"></path>
                <path d="M8.33,12.437 C8.509,12.353 8.703,12.332 8.889,12.406 C9.136,12.499 9.387,12.371 9.627,12.312 C9.625,12.566 9.625,12.819 9.627,13.073 C9.15,12.905 8.653,12.773 8.142,12.801 C8.055,12.739 7.968,12.678 7.881,12.618 C8.032,12.563 8.18,12.498 8.33,12.437" id="Fill-42" fill="#DFC57C"></path>
                <path d="M6.807,13.404 C6.974,12.983 7.414,12.792 7.753,12.535 C7.785,12.556 7.849,12.597 7.881,12.618 C7.968,12.678 8.055,12.739 8.142,12.801 C7.686,12.816 7.236,13.11 7.182,13.59 C7.103,14.2 6.892,14.785 6.835,15.397 C6.775,15.837 7.181,16.125 7.308,16.509 C7.347,16.718 7.36,16.931 7.413,17.137 C7.352,17.404 7.299,17.673 7.257,17.943 C7.168,17.945 7.078,17.948 6.989,17.951 C6.895,18.169 6.782,18.381 6.711,18.609 C6.792,19.048 6.936,19.475 7.037,19.911 C7.017,19.96 6.976,20.059 6.956,20.108 C6.738,19.871 6.614,19.54 6.326,19.376 C6.252,19.251 6.172,19.131 6.098,19.007 C5.655,18.253 5.352,17.412 5.217,16.548 C5.258,16.293 5.307,16.039 5.349,15.785 C5.533,16.15 5.513,16.595 5.759,16.928 C5.926,16.884 6.094,16.843 6.264,16.813 L6.348,16.913 C6.524,16.658 6.69,16.384 6.722,16.068 C6.607,16.224 6.5,16.386 6.403,16.554 C6.263,16.334 6.097,16.124 6.016,15.874 C5.971,15.585 5.981,15.292 5.958,15.002 C5.853,15.022 5.749,15.042 5.644,15.065 L5.719,14.981 C5.812,14.877 5.901,14.77 5.991,14.664 C5.867,14.648 5.743,14.628 5.618,14.621 L5.536,14.617 C5.684,14.52 5.911,14.478 5.962,14.284 C6.074,13.976 6.187,13.664 6.374,13.392 C6.35,13.794 6.243,14.192 6.269,14.597 C6.258,14.796 6.442,14.897 6.565,15.019 C6.636,14.48 6.617,13.92 6.807,13.404" id="Fill-43" fill="#F3E19D"></path>
                <path d="M7.182,13.59 C7.236,13.11 7.686,12.816 8.142,12.801 C8.653,12.773 9.15,12.905 9.627,13.073 L9.627,13.102 C9.63,13.549 9.624,13.995 9.629,14.442 L9.628,14.525 C9.478,14.671 9.336,14.826 9.192,14.979 C8.948,15.187 8.635,15.27 8.331,15.348 C8.317,15.413 8.289,15.543 8.275,15.608 C8.259,15.68 8.228,15.825 8.212,15.897 C7.783,15.499 7.532,14.965 7.247,14.465 C7.088,14.199 7.149,13.879 7.182,13.59" id="Fill-44" fill="#252211"></path>
                <path d="M9.627,13.102 C9.923,13.211 10.189,13.385 10.386,13.634 C10.32,14.013 10.259,14.393 10.185,14.771 C9.954,14.887 9.786,15.084 9.721,15.336 C9.737,15.034 9.688,14.736 9.629,14.442 C9.624,13.995 9.63,13.549 9.627,13.102" id="Fill-45" fill="#DFDDD9"></path>
                <path d="M2.825,13.23 C3.144,13.189 3.467,13.224 3.787,13.205 L3.646,13.384 C4.142,13.347 4.647,13.383 5.126,13.522 C4.687,13.434 4.241,13.366 3.793,13.4 C3.627,13.419 3.479,13.342 3.343,13.258 C3.182,13.245 2.927,13.42 2.825,13.23" id="Fill-46" fill="#D6D6D5"></path>
                <path d="M6.835,15.397 C6.892,14.785 7.103,14.2 7.182,13.59 C7.149,13.879 7.088,14.199 7.247,14.465 C7.532,14.965 7.783,15.499 8.212,15.897 C8.228,15.825 8.259,15.68 8.275,15.608 C8.432,15.615 8.589,15.624 8.747,15.634 C8.967,15.812 9.204,15.972 9.394,16.185 C9.599,15.795 9.31,15.413 9.349,15.012 C9.31,15.004 9.231,14.987 9.192,14.979 C9.336,14.826 9.478,14.671 9.628,14.525 C9.626,15.206 9.629,15.888 9.629,16.569 C8.859,16.329 8.037,16.05 7.232,16.308 C7.985,16.652 8.834,16.679 9.628,16.887 C9.628,17.112 9.626,17.337 9.624,17.562 C9.257,17.727 8.923,17.955 8.566,18.14 C8.194,17.89 7.923,17.523 7.554,17.269 C7.519,17.236 7.448,17.17 7.413,17.137 C7.36,16.931 7.347,16.718 7.308,16.509 C7.181,16.125 6.775,15.837 6.835,15.397" id="Fill-47" fill="#6E6342"></path>
                <path d="M3.776,14.696 C4.159,14.484 4.593,14.389 5.018,14.305 C4.973,14.401 4.898,14.459 4.795,14.481 C4.463,14.581 4.128,14.697 3.776,14.696" id="Fill-48" fill="#BFA64C"></path>
                <path d="M23.703,14.27 C23.902,14.794 23.889,15.369 24.094,15.892 C24.3,16.636 24.716,17.356 24.642,18.15 C24.54,17.984 24.445,17.807 24.453,17.606 C24.455,17.177 24.226,16.803 24.121,16.398 C23.997,15.952 23.868,15.508 23.734,15.066 C23.726,14.801 23.722,14.535 23.703,14.27" id="Fill-49" fill="#988430"></path>
                <path d="M9.629,14.442 C9.688,14.736 9.737,15.034 9.721,15.336 C9.709,15.549 9.712,15.763 9.72,15.977 C9.791,16.036 9.862,16.095 9.933,16.154 C9.905,16.259 9.876,16.365 9.85,16.471 C9.811,16.626 9.805,16.787 9.807,16.947 C10.897,17.331 12.262,17.599 13.245,16.819 C13.273,16.826 13.331,16.839 13.359,16.845 C13.406,17.304 13.049,17.625 12.896,18.023 C12.192,18.312 11.324,18.287 10.735,18.809 C10.483,18.513 10.112,18.598 9.778,18.66 C9.726,18.5 9.673,18.341 9.63,18.179 C9.621,17.973 9.623,17.768 9.624,17.562 C9.626,17.337 9.628,17.112 9.628,16.887 C9.629,16.781 9.629,16.675 9.629,16.569 C9.629,15.888 9.626,15.206 9.628,14.525 L9.629,14.442" id="Fill-50" fill="#E7E3DB"></path>
                <path d="M5.618,14.621 C5.743,14.628 5.867,14.648 5.991,14.664 C5.901,14.77 5.812,14.877 5.719,14.981 C5.513,15.087 5.305,15.187 5.099,15.293 C5.096,15.187 5.088,14.974 5.084,14.868 C5.26,14.781 5.437,14.695 5.618,14.621" id="Fill-51" fill="#F5EDB6"></path>
                <path d="M5.644,15.065 C5.749,15.042 5.853,15.022 5.958,15.002 C5.981,15.292 5.971,15.585 6.016,15.874 C6.097,16.124 6.263,16.334 6.403,16.554 C6.354,16.639 6.308,16.725 6.264,16.813 C6.094,16.843 5.926,16.884 5.759,16.928 C5.513,16.595 5.533,16.15 5.349,15.785 C5.307,16.039 5.258,16.293 5.217,16.548 C5.165,16.168 5.111,15.786 5.107,15.402 C5.245,15.24 5.469,15.179 5.644,15.065" id="Fill-52" fill="#F4ECB4"></path>
                <path d="M8.331,15.348 C8.635,15.27 8.948,15.187 9.192,14.979 C9.231,14.987 9.31,15.004 9.349,15.012 C9.31,15.413 9.599,15.795 9.394,16.185 C9.204,15.972 8.967,15.812 8.747,15.634 C8.589,15.624 8.432,15.615 8.275,15.608 C8.289,15.543 8.317,15.413 8.331,15.348" id="Fill-53" fill="#39331F"></path>
                <path d="M23.734,15.066 C23.868,15.508 23.997,15.952 24.121,16.398 C24.226,16.803 24.455,17.177 24.453,17.606 C24.445,17.807 24.54,17.984 24.642,18.15 C24.566,18.715 24.863,19.238 24.834,19.799 C24.827,20.006 24.803,20.213 24.792,20.421 C24.717,20.293 24.628,20.174 24.533,20.061 C24.424,20.398 24.496,20.814 24.221,21.077 C24.101,20.907 24.041,20.625 23.796,20.6 C23.441,20.543 23.11,20.717 22.872,20.968 C22.559,21.303 22.075,21.318 21.649,21.36 C21.985,21.018 22.264,20.626 22.524,20.225 C22.756,20.298 22.912,20.091 23.085,19.979 C23.256,19.834 23.48,19.785 23.671,19.674 C23.833,19.418 23.953,19.132 24.021,18.837 C23.966,18.643 23.875,18.462 23.831,18.265 C23.731,18.289 23.633,18.313 23.534,18.337 C23.49,18.302 23.401,18.233 23.357,18.198 C23.633,17.179 23.728,16.119 23.734,15.066" id="Fill-54" fill="#CCA847"></path>
                <path d="M4.658,15.504 C4.808,15.435 4.81,15.632 4.688,15.663 C4.582,15.717 4.455,15.828 4.33,15.775 C4.325,15.62 4.543,15.561 4.658,15.504" id="Fill-55" fill="#C1A956"></path>
                <path d="M18.043,16.053 C18.191,15.952 18.351,15.871 18.508,15.786 C18.399,17.029 17.966,18.353 16.912,19.11 C16.16,19.675 15.173,19.403 14.306,19.461 C14.296,19.424 14.277,19.349 14.268,19.312 C14.569,19.195 14.873,19.004 15.21,19.068 C15.571,19.116 15.936,19.129 16.296,19.075 C16.157,18.989 16.012,18.911 15.885,18.809 C15.817,18.689 15.842,18.536 15.774,18.417 C15.644,18.263 15.492,18.13 15.351,17.987 C15.615,17.764 15.769,17.449 15.995,17.193 C16.391,16.866 16.951,16.919 17.396,16.697 C17.65,16.523 17.789,16.227 18.043,16.053" id="Fill-56" fill="#ECD592"></path>
                <path d="M6.403,16.554 C6.5,16.386 6.607,16.224 6.722,16.068 C6.69,16.384 6.524,16.658 6.348,16.913 L6.264,16.813 C6.308,16.725 6.354,16.639 6.403,16.554" id="Fill-57" fill="#D7C27C"></path>
                <path d="M7.232,16.308 C8.037,16.05 8.859,16.329 9.629,16.569 C9.629,16.675 9.629,16.781 9.628,16.887 C8.834,16.679 7.985,16.652 7.232,16.308" id="Fill-58" fill="#242110"></path>
                <path d="M9.807,16.947 C9.805,16.787 9.811,16.626 9.85,16.471 C10.158,16.842 10.62,17.074 11.099,17.119 C11.819,17.064 12.508,16.587 13.245,16.819 C12.262,17.599 10.897,17.331 9.807,16.947" id="Fill-59" fill="#D6D6D5"></path>
                <path d="M7.413,17.137 C7.448,17.17 7.519,17.236 7.554,17.269 C7.59,17.756 7.884,18.164 8.112,18.58 C8.297,18.924 8.61,19.174 8.93,19.387 C9.156,19.45 9.394,19.442 9.627,19.461 C8.919,19.51 8.21,19.418 7.504,19.49 C7.452,19.705 7.417,19.923 7.419,20.145 C7.292,20.067 7.165,19.989 7.037,19.911 C6.936,19.475 6.792,19.048 6.711,18.609 C6.782,18.381 6.895,18.169 6.989,17.951 C7.078,17.948 7.168,17.945 7.257,17.943 C7.299,17.673 7.352,17.404 7.413,17.137" id="Fill-60" fill="#EED88B"></path>
                <path d="M7.554,17.269 C7.923,17.523 8.194,17.89 8.566,18.14 C8.67,18.233 8.766,18.334 8.866,18.431 C9.085,18.605 9.365,18.661 9.628,18.736 C9.628,18.977 9.627,19.219 9.627,19.461 C9.394,19.442 9.156,19.45 8.93,19.387 C8.61,19.174 8.297,18.924 8.112,18.58 C7.884,18.164 7.59,17.756 7.554,17.269" id="Fill-61" fill="#DFC677"></path>
                <path d="M8.566,18.14 C8.923,17.955 9.257,17.727 9.624,17.562 C9.623,17.768 9.621,17.973 9.63,18.179 C9.364,18.221 9.054,18.198 8.866,18.431 C8.766,18.334 8.67,18.233 8.566,18.14" id="Fill-62" fill="#927D49"></path>
                <path d="M8.866,18.431 C9.054,18.198 9.364,18.221 9.63,18.179 C9.628,18.364 9.628,18.55 9.628,18.736 C9.365,18.661 9.085,18.605 8.866,18.431" id="Fill-63" fill="#C4A859"></path>
                <path d="M23.357,18.198 C23.401,18.233 23.49,18.302 23.534,18.337 C23.633,18.313 23.731,18.289 23.831,18.265 C23.875,18.462 23.966,18.643 24.021,18.837 C23.953,19.132 23.833,19.418 23.671,19.674 C23.48,19.785 23.256,19.834 23.085,19.979 C22.912,20.091 22.756,20.298 22.524,20.225 C22.895,19.593 23.166,18.905 23.357,18.198" id="Fill-64" fill="#C0993A"></path>
                <path d="M6.098,19.007 C6.172,19.131 6.252,19.251 6.326,19.376 C6.537,20.194 6.827,21.051 7.424,21.67 C7.431,22.115 7.408,22.56 7.433,23.005 C7.434,23.165 7.513,23.384 7.71,23.368 C8.27,23.392 8.832,23.37 9.393,23.372 C9.175,23.66 9.334,24.002 9.34,24.323 C9.346,24.701 9.545,25.036 9.603,25.403 C9.445,25.803 9.181,26.148 8.972,26.521 C8.763,26.552 8.544,26.469 8.343,26.527 C8.224,26.691 8.158,26.923 7.931,26.967 C6.859,26.301 5.85,25.524 4.985,24.601 C5.368,23.824 5.692,22.981 5.618,22.098 C5.56,21.734 5.836,21.444 5.893,21.101 C5.884,20.899 5.732,20.74 5.641,20.568 C5.966,20.113 6.085,19.558 6.098,19.007" id="Fill-65" fill="#E5CB7A"></path>
                <path d="M6.326,19.376 C6.614,19.54 6.738,19.871 6.956,20.108 C6.976,20.059 7.017,19.96 7.037,19.911 C7.165,19.989 7.292,20.067 7.419,20.145 C7.432,20.653 7.429,21.162 7.424,21.67 C6.827,21.051 6.537,20.194 6.326,19.376" id="Fill-66" fill="#D2B159"></path>
                <path d="M24.533,20.061 C24.628,20.174 24.717,20.293 24.792,20.421 C24.843,21.015 24.976,21.601 24.982,22.2 C24.997,23.008 25.009,23.816 25.047,24.623 C24.148,25.574 23.106,26.395 21.969,27.041 C21.538,26.732 21.042,26.971 20.649,27.217 C20.722,27.073 20.831,26.956 20.953,26.853 C21.194,26.652 21.288,26.328 21.54,26.137 C21.8,25.903 22.148,25.77 22.353,25.478 C22.56,25.031 23.012,24.788 23.284,24.389 C23.538,24.024 23.956,23.688 23.917,23.2 C23.899,22.781 23.984,22.37 24.033,21.957 C24.047,21.656 24.093,21.352 24.221,21.077 C24.496,20.814 24.424,20.398 24.533,20.061" id="Fill-67" fill="#BA9040"></path>
                <path d="M22.872,20.968 C23.11,20.717 23.441,20.543 23.796,20.6 C24.041,20.625 24.101,20.907 24.221,21.077 C24.093,21.352 24.047,21.656 24.033,21.957 C23.984,22.37 23.899,22.781 23.917,23.2 C23.956,23.688 23.538,24.024 23.284,24.389 C23.012,24.788 22.56,25.031 22.353,25.478 C22.208,25.479 22.063,25.481 21.918,25.483 C22.283,24.925 22.512,24.296 22.802,23.7 C22.869,23.602 22.84,23.494 22.806,23.392 C22.737,23.22 22.824,23.042 22.815,22.866 C22.785,22.685 22.709,22.516 22.649,22.344 C22.34,22.287 22.029,22.208 21.713,22.226 C21.32,22.297 21.048,22.626 20.694,22.782 C20.525,22.854 20.334,22.872 20.177,22.972 C19.863,23.239 19.788,23.705 19.424,23.927 C19.069,24.169 18.756,24.464 18.423,24.734 C18.227,24.917 17.941,24.781 17.705,24.82 C17.497,24.926 17.351,25.12 17.154,25.243 C16.899,25.329 16.597,25.293 16.385,25.483 C16.039,25.783 15.53,25.697 15.164,25.964 C14.75,26.175 14.564,26.642 14.168,26.875 C13.87,27.053 13.635,27.312 13.398,27.562 C13.334,27.483 13.27,27.405 13.207,27.327 C12.877,27.518 12.608,27.824 12.222,27.905 C12.084,27.741 11.95,27.541 11.712,27.531 C11.751,27.451 11.789,27.371 11.825,27.29 C11.743,27.184 11.65,27.079 11.501,27.101 C11.139,27.057 10.775,27.134 10.413,27.107 C10.167,26.976 9.958,26.777 9.81,26.541 C10.088,26.21 10.217,25.791 10.449,25.433 C10.587,25.241 10.81,25.394 10.984,25.437 C11.056,25.271 11.129,25.106 11.201,24.941 C11.299,24.953 11.397,24.965 11.495,24.978 C11.731,24.763 11.869,24.475 11.96,24.174 C12.118,24.127 12.276,24.08 12.433,24.032 C12.431,23.77 12.551,23.545 12.74,23.37 C14.06,23.381 15.38,23.371 16.7,23.375 C18.217,23.409 19.74,22.914 20.948,21.996 C21.202,21.807 21.431,21.588 21.649,21.36 C22.075,21.318 22.559,21.303 22.872,20.968" id="Fill-68" fill="#D8C173"></path>
                <path d="M20.694,22.782 C21.048,22.626 21.32,22.297 21.713,22.226 C22.029,22.208 22.34,22.287 22.649,22.344 C22.709,22.516 22.785,22.685 22.815,22.866 C22.824,23.042 22.737,23.22 22.806,23.392 C22.84,23.494 22.869,23.602 22.802,23.7 C22.512,24.296 22.283,24.925 21.918,25.483 C22.063,25.481 22.208,25.479 22.353,25.478 C22.148,25.77 21.8,25.903 21.54,26.137 C21.288,26.328 21.194,26.652 20.953,26.853 C20.831,26.956 20.722,27.073 20.649,27.217 C20.132,27.56 19.521,27.716 18.97,27.993 C18.966,27.891 18.962,27.789 18.959,27.688 C18.561,27.777 18.161,27.854 17.77,27.967 C17.434,28.059 17.228,28.366 16.931,28.526 C16.694,28.613 16.42,28.634 16.244,28.838 C14.427,28.988 12.582,28.806 10.838,28.271 C11.033,28.209 11.228,28.143 11.42,28.069 C11.446,27.856 11.563,27.68 11.712,27.531 C11.95,27.541 12.084,27.741 12.222,27.905 C12.608,27.824 12.877,27.518 13.207,27.327 C13.27,27.405 13.334,27.483 13.398,27.562 C13.635,27.312 13.87,27.053 14.168,26.875 C14.564,26.642 14.75,26.175 15.164,25.964 C15.53,25.697 16.039,25.783 16.385,25.483 C16.597,25.293 16.899,25.329 17.154,25.243 C17.351,25.12 17.497,24.926 17.705,24.82 C17.941,24.781 18.227,24.917 18.423,24.734 C18.756,24.464 19.069,24.169 19.424,23.927 C19.788,23.705 19.863,23.239 20.177,22.972 C20.334,22.872 20.525,22.854 20.694,22.782" id="Fill-69" fill="#E0CD81"></path>
                <path d="M9.393,23.372 C9.516,23.372 9.639,23.373 9.762,23.374 C10.047,23.709 10.415,24.081 10.885,24.081 C11.256,24.044 11.072,23.604 11.023,23.372 C11.595,23.371 12.168,23.372 12.74,23.37 C12.551,23.545 12.431,23.77 12.433,24.032 C12.276,24.08 12.118,24.127 11.96,24.174 C11.869,24.475 11.731,24.763 11.495,24.978 C11.397,24.965 11.299,24.953 11.201,24.941 C11.129,25.106 11.056,25.271 10.984,25.437 C10.81,25.394 10.587,25.241 10.449,25.433 C10.217,25.791 10.088,26.21 9.81,26.541 C9.76,26.44 9.711,26.339 9.664,26.237 C9.435,26.337 9.206,26.435 8.972,26.521 C9.181,26.148 9.445,25.803 9.603,25.403 C9.545,25.036 9.346,24.701 9.34,24.323 C9.334,24.002 9.175,23.66 9.393,23.372" id="Fill-70" fill="#C2A44D"></path>
                <path d="M9.762,23.374 C10.182,23.372 10.603,23.372 11.023,23.372 C11.072,23.604 11.256,24.044 10.885,24.081 C10.415,24.081 10.047,23.709 9.762,23.374" id="Fill-71" fill="#D2B159"></path>
                <path d="M8.972,26.521 C9.206,26.435 9.435,26.337 9.664,26.237 C9.711,26.339 9.76,26.44 9.81,26.541 C9.958,26.777 10.167,26.976 10.413,27.107 C10.775,27.134 11.139,27.057 11.501,27.101 C11.65,27.079 11.743,27.184 11.825,27.29 C11.789,27.371 11.751,27.451 11.712,27.531 C11.563,27.68 11.446,27.856 11.42,28.069 C11.228,28.143 11.033,28.209 10.838,28.271 C9.827,27.936 8.854,27.498 7.931,26.967 C8.158,26.923 8.224,26.691 8.343,26.527 C8.544,26.469 8.763,26.552 8.972,26.521" id="Fill-72" fill="#CEB052"></path>
                <path d="M20.649,27.217 C21.042,26.971 21.538,26.732 21.969,27.041 C20.228,28.054 18.256,28.696 16.244,28.838 C16.42,28.634 16.694,28.613 16.931,28.526 C17.228,28.366 17.434,28.059 17.77,27.967 C18.161,27.854 18.561,27.777 18.959,27.688 C18.962,27.789 18.966,27.891 18.97,27.993 C19.521,27.716 20.132,27.56 20.649,27.217" id="Fill-73" fill="#D2BA6B"></path>
            </g>
        </g>
    </g>
</svg>