<?xml version="1.0" encoding="UTF-8"?>
<svg width="30px" height="40px" viewBox="0 0 30 40" version="1.1" xmlns="http://www.w3.org/2000/svg" xmlns:xlink="http://www.w3.org/1999/xlink">
    <!-- Generator: sketchtool 52.6 (67491) - http://www.bohemiancoding.com/sketch -->
    <title>233D9BC9-3494-4E4B-BC9F-6BB29EA40381</title>
    <desc>Created with sketchtool.</desc>
    <g id="Symbols" stroke="none" stroke-width="1" fill="none" fill-rule="evenodd">
        <g id="icons/currencys/PM/default">
            <g id="icons/currencys/yandex/default" transform="translate(0.000000, -4.000000)" fill="#D8D8D8" fill-opacity="0" fill-rule="nonzero">
                <rect id="Rectangle" x="0" y="0" width="30" height="50"></rect>
            </g>
            <g id="Group" transform="translate(1.000000, 7.000000)">
                <circle id="Oval" fill="#ED2216" fill-rule="nonzero" cx="14" cy="14" r="14"></circle>
                <path d="M10.1296425,11.9332563 C10.1296425,11.0809669 9.76243823,10.4961601 9.02801865,10.1788183 C8.63360814,10.006547 8.13493566,9.92041271 7.53198626,9.92041271 C7.24637864,9.92041271 7.07070993,9.94874638 7.00497484,10.0054146 C6.93923976,10.0620827 6.90637271,10.1878842 6.90637271,10.3828227 L6.90637271,14.0141014 C7.15571269,14.0367686 7.31891459,14.0503688 7.39598331,14.0549022 C7.47305203,14.0594357 7.5478529,14.0617024 7.62038817,14.0617024 C8.25960521,14.0617024 8.76281107,13.9710347 9.13002086,13.7896965 C9.79643862,13.4587543 10.1296425,12.8399471 10.1296425,11.9332563 Z M4.3291169,18.3661956 C4.85953104,18.3163276 5.19046823,18.2109264 5.3219384,18.0499888 C5.45340857,17.8890511 5.51914267,17.5207135 5.51914267,16.9449648 L5.51914267,10.9132342 C5.51914267,10.4281546 5.44547514,10.1085509 5.29813788,9.95441345 C5.15080062,9.80027601 4.82779686,9.7028082 4.3291169,9.66200712 L4.3291169,9.40360152 L8.00119642,9.40360152 C9.1798945,9.40360152 10.0820383,9.63253752 10.707655,10.0904164 C11.3332717,10.5482953 11.6460753,11.1512356 11.6460753,11.8992556 C11.6460753,12.8467475 11.2992713,13.5335555 10.6056528,13.9597002 C9.91203433,14.3858449 9.04389088,14.598914 8.00119642,14.598914 C7.85159243,14.598914 7.66005686,14.595514 7.42658397,14.5887138 C7.19311108,14.5819136 7.01970906,14.5785136 6.90637271,14.5785136 L6.90637271,17.1081684 C6.90637271,17.634049 6.98684031,17.9649862 7.14777794,18.1009899 C7.30871556,18.2369935 7.66798641,18.3253945 8.22560128,18.3661956 L8.22560128,18.617801 L4.3291169,18.617801 L4.3291169,18.3661956 Z M11.7898455,18.3661956 C12.3655942,18.3072607 12.7350652,18.1769258 12.8982695,17.9751871 C13.0614739,17.7734484 13.1430748,17.3053763 13.1430748,16.5709567 L13.1430748,10.9132342 C13.1430748,10.4100208 13.0637406,10.0824836 12.9050697,9.93061293 C12.7463988,9.77874222 12.3859946,9.68920784 11.8238463,9.66200712 L11.8238463,9.40360152 L14.5779059,9.40360152 L17.8011757,16.4281536 L20.8816424,9.40360152 L23.6561025,9.40360152 L23.6561025,9.66200712 C23.1392887,9.69827475 22.8060848,9.79234251 22.6564808,9.94421323 C22.5068769,10.0960839 22.432076,10.4190877 22.432076,10.9132342 L22.432076,17.1081684 C22.432076,17.6159152 22.5068769,17.9411857 22.6564808,18.0839895 C22.8060848,18.2267933 23.1392887,18.3208611 23.6561025,18.3661956 L23.6561025,18.617801 L19.752818,18.617801 L19.752818,18.3661956 C20.3149663,18.3208611 20.6651704,18.2199932 20.8034407,18.063589 C20.9417111,17.9071849 21.0108452,17.5343139 21.0108452,16.9449648 L21.0108452,10.6888294 L17.4475681,18.617801 L17.2571639,18.617801 L13.7550881,11.0152364 L13.7550881,16.5709567 C13.7550881,17.332577 13.8661561,17.8289828 14.0882953,18.060189 C14.2333658,18.209793 14.557503,18.3117941 15.0607164,18.3661956 L15.0607164,18.617801 L11.7898455,18.617801 L11.7898455,18.3661956 Z" id="PM" fill="#FFFFFF"></path>
            </g>
        </g>
    </g>
</svg>