<?xml version="1.0" encoding="UTF-8"?>
<svg width="30px" height="40px" viewBox="0 0 30 40" version="1.1" xmlns="http://www.w3.org/2000/svg" xmlns:xlink="http://www.w3.org/1999/xlink">
    <!-- Generator: sketchtool 52.6 (67491) - http://www.bohemiancoding.com/sketch -->
    <title>77385216-3F2B-46B1-9E7B-0A006B070493</title>
    <desc>Created with sketchtool.</desc>
    <g id="Symbols" stroke="none" stroke-width="1" fill="none" fill-rule="evenodd">
        <g id="icons/currencys/sberbank/default">
            <rect id="Rectangle" fill-opacity="0" fill="#D8D8D8" fill-rule="nonzero" x="0" y="-5" width="30" height="50"></rect>
            <path d="M29,19.9523473 C29,27.7094261 22.7325449,34 15,34 C7.26745511,34 1,27.7094261 1,19.9523473 C1,19.6360274 1.01291163,19.3235186 1.03265882,19.0140587 L9.50648294,23.9074895 L27.4604785,13.5413432 C28.4740738,15.5245377 29.0011047,17.7219741 28.9977215,19.9508229 L29,19.9523473 Z M9.50648294,20.3715665 L1.61747952,15.8173221 C1.46130145,16.3258328 1.33450594,16.8429678 1.23772582,17.3661463 L9.50648294,22.1399091 L26.691857,12.221184 C26.4084407,11.7919573 26.1026953,11.3780085 25.7758911,10.9810575 L9.50648294,20.3715665 Z M24.7103022,9.83163481 C24.3211479,9.45547658 23.9108486,9.10199162 23.4814192,8.7729159 L9.50648294,16.8379302 L2.83876743,12.9872117 C2.58606436,13.431641 2.35786864,13.8896605 2.15521076,14.3592016 L9.50648294,18.6032239 L24.7103022,9.83163481 Z M9.50648294,15.0703498 L22.0679759,7.82319397 C21.540886,7.51323626 20.9941367,7.23824994 20.4312375,7 L9.50648294,13.3035316 L4.64563554,10.4962877 C4.2988343,10.8794336 3.97303181,11.2812057 3.66966853,11.6998278 L9.50648294,15.0703498 Z" id="Shape" fill="#299D30"></path>
        </g>
    </g>
</svg>