<?xml version="1.0" encoding="UTF-8" standalone="no"?><!DOCTYPE svg PUBLIC "-//W3C//DTD SVG 1.1//EN" "http://www.w3.org/Graphics/SVG/1.1/DTD/svg11.dtd"><svg width="100%" height="100%" viewBox="0 0 267 359" version="1.1" xmlns="http://www.w3.org/2000/svg" xmlns:xlink="http://www.w3.org/1999/xlink" xml:space="preserve" xmlns:serif="http://www.serif.com/" style="fill-rule:evenodd;clip-rule:evenodd;stroke-linejoin:round;stroke-miterlimit:2;"><g id="tron"><path d="M256.458,126.167c-12.5,-11.542 -29.791,-29.167 -43.875,-41.667l-0.833,-0.583c-1.387,-1.114 -2.95,-1.987 -4.625,-2.584c-33.958,-6.333 -192,-35.875 -195.083,-35.5c-0.864,0.121 -1.69,0.435 -2.417,0.917l-0.792,0.625c-0.974,0.99 -1.715,2.186 -2.166,3.5l-0.209,0.542l0,3.416c17.792,49.542 88.042,211.834 101.875,249.917c0.834,2.583 2.417,7.5 5.375,7.75l0.667,0c1.583,0 8.333,-8.917 8.333,-8.917c0,0 120.667,-146.333 132.875,-161.916c1.581,-1.92 2.976,-3.985 4.167,-6.167c0.618,-3.469 -0.634,-7.019 -3.292,-9.333Zm-102.791,17.041l51.5,-42.708l30.208,27.833l-81.708,14.875Zm-20,-2.791l-88.667,-72.667l143.458,26.458l-54.791,46.209Zm8,19.041l90.75,-14.625l-103.75,125l13,-110.375Zm-108.709,-84.458l93.292,79.167l-13.5,115.75l-79.792,-194.917Z" style="fill:#ff060a;fill-rule:nonzero;"/></g></svg>