<?xml version="1.0" encoding="UTF-8"?>
<svg width="30px" height="40px" viewBox="0 0 30 40" version="1.1" xmlns="http://www.w3.org/2000/svg" xmlns:xlink="http://www.w3.org/1999/xlink">
    <!-- Generator: sketchtool 52.6 (67491) - http://www.bohemiancoding.com/sketch -->
    <title>02CD93B3-DD24-4540-AD43-2C4E31C3089C</title>
    <desc>Created with sketchtool.</desc>
    <g id="Symbols" stroke="none" stroke-width="1" fill="none" fill-rule="evenodd">
        <g id="icons/currencys/alfa-bank/default">
            <rect id="Rectangle" fill-opacity="0" fill="#D8D8D8" fill-rule="nonzero" x="0" y="-5" width="30" height="50"></rect>
            <g id="Alfa" transform="translate(5.000000, 5.000000)" fill="#EE3524">
                <path d="M10.1821622,0 C12.3333232,0 13.0264751,1.58249497 13.600118,3.16498994 C13.8391359,3.822334 19.4560563,19.4768612 19.6233689,19.9637827 C19.6711724,20.0855131 19.6472707,20.3046278 19.4321545,20.377666 C19.2409402,20.4507042 16.324922,21.6193159 16.1576094,21.668008 C15.9902969,21.7410463 15.8229844,21.643662 15.751279,21.4732394 C15.7034754,21.3028169 14.4844842,17.8943662 14.3410735,17.504829 L6.02325086,17.504829 C5.87984012,17.8943662 4.66084888,21.3028169 4.6130453,21.4732394 C4.56524172,21.6193159 4.37402741,21.7410463 4.20671488,21.668008 C4.03940236,21.5949698 1.0994823,20.4507042 0.932169775,20.377666 C0.764857252,20.3046278 0.693151884,20.1098592 0.740955463,19.9637827 C0.956071565,19.3794769 6.47738485,3.96841046 6.76420632,3.16498994 C7.33784926,1.60684105 8.03100114,0 10.1821622,0 Z M0.307605634,27.9230769 C0.141971831,27.9230769 0,28.0664928 0,28.257714 L0,31.8431117 C0,32.0104302 0.141971831,32.1538462 0.307605634,32.1538462 L19.8523944,32.1538462 C20.0180282,32.1538462 20.16,32.0104302 20.16,31.8431117 L20.16,28.257714 C20.16,28.0903955 20.0180282,27.9230769 19.8523944,27.9230769 L0.307605634,27.9230769 L0.307605634,27.9230769 Z M10.1821622,5.11267606 L7.36175105,13.706841 L13.0264751,13.706841 L10.206064,5.11267606 L10.1821622,5.11267606 Z" id="Shape"></path>
            </g>
        </g>
    </g>
</svg>