<?xml version="1.0" encoding="UTF-8"?>
<svg width="30px" height="40px" viewBox="0 0 30 40" version="1.1" xmlns="http://www.w3.org/2000/svg" xmlns:xlink="http://www.w3.org/1999/xlink">
    <!-- Generator: sketchtool 52.6 (67491) - http://www.bohemiancoding.com/sketch -->
    <title>4B915A2D-D5B0-4E3F-98F0-CFCABDDA7505</title>
    <desc>Created with sketchtool.</desc>
    <g id="Symbols" stroke="none" stroke-width="1" fill="none" fill-rule="evenodd">
        <g id="icons/currencys/qiwi/default">
            <g transform="translate(0.000000, -4.000000)">
                <rect id="Rectangle" fill-opacity="0" fill="#D8D8D8" fill-rule="nonzero" x="0" y="0" width="30" height="50"></rect>
                <path d="M20.0813711,36.3032409 C22.6382322,36.3032409 25.4125748,37.179951 28.4830953,39.9006016 C28.7907095,40.1731318 29.2000864,39.8345043 28.9318205,39.4958767 C25.9142165,35.6858804 23.1232042,34.9605544 20.3397515,34.3470706 C16.9352554,33.5969339 15.1839674,31.6812749 13.9633962,29.577791 C13.7205225,29.1593039 13.6115879,29.2331546 13.5898786,29.7710432 C13.5631295,30.428915 13.6084866,31.2994224 13.7556064,32.1559738 C13.6183721,32.1623703 13.4801687,32.1606258 13.3413837,32.1606258 C8.4705352,32.1606258 4.52194772,28.2122322 4.52194772,23.3413837 C4.52194772,18.4705352 8.4705352,14.5219477 13.3413837,14.5219477 C18.2120383,14.5219477 22.1606258,18.4705352 22.1606258,23.3413837 C22.1606258,23.6879584 22.1437623,24.0304627 22.1048017,24.3665704 C21.4604983,24.250464 20.1932132,24.2372833 19.3039039,24.3142353 C18.9693468,24.3431165 19.0164484,24.4989589 19.2694015,24.5447036 C22.1846612,25.0715438 24.1877392,26.8782683 24.6455746,30.1569663 C24.6560416,30.2321738 24.754703,30.2548523 24.7938574,30.1897242 C25.9934945,28.1878091 26.6825735,25.8449405 26.6825735,23.3413837 C26.6825735,15.9731811 20.7095863,10 13.3413837,10 C5.97318107,10 0,15.9731811 0,23.3413837 C0,30.7095863 5.97318107,36.6833489 13.3413837,36.6833489 C15.2961971,36.6833489 17.23531,36.3032409 20.0813711,36.3032409 Z M21.0745753,31.4593353 C21.6679004,31.9611709 21.8485535,32.5577912 21.5345428,32.9786043 C21.3598986,33.2092664 21.0769013,33.3366152 20.737886,33.3366152 C20.4048796,33.3366152 20.0654767,33.2133369 19.8299687,33.0076793 C19.2903355,32.5362756 19.1317795,31.7714076 19.4841693,31.3370262 C19.6217913,31.1672278 19.8454754,31.0736061 20.1135475,31.0736061 C20.4395759,31.0736061 20.7807233,31.2108404 21.0745753,31.4593353 Z M23.5300613,31.0115793 C23.3276989,31.0115793 23.0735828,30.7745206 22.773722,30.3069936 C22.4779317,29.8452816 22.3697724,29.3157278 22.5163108,29.0480433 C22.6132276,28.8708793 22.8159777,28.7939273 23.0716445,28.8906503 C23.5666959,29.0776999 23.7611111,29.8355899 23.8130586,30.1846845 C23.9002838,30.7694809 23.7155602,31.0115793 23.5300613,31.0115793 Z" id="icons/currencys/qiwi" fill="#E9832C"></path>
            </g>
        </g>
    </g>
</svg>