<?xml version="1.0" encoding="UTF-8"?>
<svg width="30px" height="40px" viewBox="0 0 30 40" version="1.1" xmlns="http://www.w3.org/2000/svg" xmlns:xlink="http://www.w3.org/1999/xlink">
    <!-- Generator: sketchtool 52.6 (67491) - http://www.bohemiancoding.com/sketch -->
    <title>2F4B8E4F-BAA5-4786-86E4-CF698F2AC25A</title>
    <desc>Created with sketchtool.</desc>
    <g id="Symbols" stroke="none" stroke-width="1" fill="none" fill-rule="evenodd">
        <g id="icons/currencys/bitcoin/default" fill-rule="nonzero">
            <rect id="Rectangle" fill-opacity="0" fill="#D8D8D8" x="0" y="-5" width="30" height="50"></rect>
            <path d="M1,18.999964 C1,11.277893 7.27783717,5 15,5 C22.7220909,5 29,11.277893 29,18.999964 C29,26.722035 22.7220909,33 15,33 C7.27783717,33 1,26.722035 1,18.999964 Z M13.7271871,19.3291303 L16.4457171,20.0575582 C17.7144235,20.3975071 18.2451549,21.4370849 17.89451,22.6250628 C17.6621674,23.492177 17.0610804,24.1644039 16.2560477,24.2691793 C15.9521837,24.3159211 15.5514921,24.2405576 15.2192715,24.1515394 L12.6215355,23.4554781 L13.7271871,19.3291303 Z M18.568447,14.7935704 C19.0319732,15.2382551 19.1436288,15.9091397 18.9593666,16.5968156 C18.6709239,17.6732986 17.8362687,18.2508615 16.7489009,17.9595022 L14.2719589,17.2958076 L15.2414285,13.6776976 L17.4163116,14.2604558 C17.8995616,14.3899423 18.3064485,14.5631265 18.568447,14.7935704 Z M14.9080939,26.2795175 C15.5122118,26.4413904 16.0719527,26.5272914 16.7240575,26.5097794 C18.3625531,26.4360085 19.9998232,25.4004594 20.5347302,23.5248055 C20.9273339,22.0595885 20.5931078,20.5279365 19.1586373,19.5986872 C20.4284622,19.3300489 21.3210769,18.4155315 21.6736202,17.099822 C22.090264,15.5448859 21.5267124,14.1440293 20.3862613,13.3257201 C19.8764057,12.9327025 19.3265634,12.6892121 18.6096715,12.4650419 L19.1785175,10.3420796 C18.232027,10.0884682 17.7587817,9.9616625 17.7587817,9.9616625 C17.7587817,9.9616625 17.5718331,10.659364 17.197936,12.0547671 L15.7178769,11.6581864 L16.2787226,9.56508187 C15.3322812,9.31148367 14.8590605,9.18468455 14.8590605,9.18468455 C14.8590605,9.18468455 14.6721119,9.88238607 14.2982148,11.2777891 L11.4588169,10.5169748 C11.1169603,11.792801 10.946032,12.4307142 10.946032,12.4307142 C10.946032,12.4307142 11.238037,12.5089567 11.8220471,12.6654417 C12.2449,12.7787448 12.5192348,13.2047372 12.3990536,13.6532596 L10.1316307,22.115397 C10.0194694,22.5339887 9.59101446,22.803827 9.1379999,22.6824421 L8.2619848,22.4477146 C7.92015427,23.7234435 7.74923897,24.3613081 7.74923897,24.3613081 C7.74923897,24.3613081 8.69570501,24.6149129 10.5886369,25.1221224 L10.0277716,27.2153 C10.9742131,27.4688982 11.4474338,27.5956973 11.4474338,27.5956973 C11.4474338,27.5956973 11.6343889,26.8979714 12.008299,25.5025198 L13.4883581,25.8991004 L12.9274928,27.9922779 C13.8739834,28.2458893 14.3472287,28.372695 14.3472287,28.372695 C14.3472287,28.372695 14.5341838,27.6749691 14.9080939,26.2795175 Z" id="Combined-Shape" fill="#F28931"></path>
        </g>
    </g>
</svg>